<svg height="512" viewBox="0 0 64 64" width="512" xmlns="http://www.w3.org/2000/svg" xmlns:xlink="http://www.w3.org/1999/xlink"><linearGradient id="New_Gradient_Swatch" gradientUnits="userSpaceOnUse" x1="32" x2="32" y1="63.454" y2="-.255"><stop offset="0" stop-color="#e93e3a"/><stop offset=".35" stop-color="#ed683c"/><stop offset=".7" stop-color="#f3903f"/><stop offset="1" stop-color="#fdc70c"/></linearGradient><linearGradient id="New_Gradient_Swatch-2" x1="22" x2="22" xlink:href="#New_Gradient_Swatch" y1="63.454" y2="-.255"/><linearGradient id="New_Gradient_Swatch-3" x1="30" x2="30" xlink:href="#New_Gradient_Swatch" y1="63.454" y2="-.255"/><linearGradient id="New_Gradient_Swatch-4" x1="40" x2="40" xlink:href="#New_Gradient_Swatch" y1="63.454" y2="-.255"/><linearGradient id="New_Gradient_Swatch-5" x1="21" x2="21" xlink:href="#New_Gradient_Swatch" y1="63.454" y2="-.255"/><linearGradient id="New_Gradient_Swatch-6" x1="27" x2="27" xlink:href="#New_Gradient_Swatch" y1="63.454" y2="-.255"/><linearGradient id="New_Gradient_Swatch-7" x1="38" x2="38" xlink:href="#New_Gradient_Swatch" y1="63.454" y2="-.255"/><linearGradient id="New_Gradient_Swatch-9" x1="34" x2="34" xlink:href="#New_Gradient_Swatch" y1="63.454" y2="-.255"/><linearGradient id="New_Gradient_Swatch-10" x1="44" x2="44" xlink:href="#New_Gradient_Swatch" y1="63.454" y2="-.255"/><linearGradient id="New_Gradient_Swatch-14" x1="45" x2="45" xlink:href="#New_Gradient_Swatch" y1="63.454" y2="-.255"/><linearGradient id="New_Gradient_Swatch-15" x1="19" x2="19" xlink:href="#New_Gradient_Swatch" y1="63.454" y2="-.255"/><linearGradient id="New_Gradient_Swatch-16" x1="25" x2="25" xlink:href="#New_Gradient_Swatch" y1="63.454" y2="-.255"/><linearGradient id="New_Gradient_Swatch-21" x1="23" x2="23" xlink:href="#New_Gradient_Swatch" y1="63.454" y2="-.255"/><linearGradient id="New_Gradient_Swatch-22" x1="35" x2="35" xlink:href="#New_Gradient_Swatch" y1="63.454" y2="-.255"/><g id="Curriculum-3" data-name="Curriculum"><path d="m49 14h-7v-3a1 1 0 0 0 -1-1h-5.62l-.241-1.326.81-.269a3 3 0 0 0 2.051-2.846v-.159a3.019 3.019 0 0 0 -2.217-2.9 14.45 14.45 0 0 0 -7.566 0 3.019 3.019 0 0 0 -2.217 2.9v.156a3 3 0 0 0 2.052 2.844l.809.269-.241 1.331h-5.62a1 1 0 0 0 -1 1v3h-7a3 3 0 0 0 -3 3v42a3 3 0 0 0 3 3h34a3 3 0 0 0 3-3v-42a3 3 0 0 0 -3-3zm-9-2v6h-3.165l-1.091-6zm-5.2 6h-5.6l1.091-6h3.422zm-4.484-10.949-1.632-.544a1 1 0 0 1 -.684-.948v-.159a1 1 0 0 1 .749-.969 12.393 12.393 0 0 1 6.5 0 1 1 0 0 1 .751.969v.156a1 1 0 0 1 -.684.948l-1.632.544a1 1 0 0 0 -.668 1.128l.331 1.824h-2.694l.331-1.821a1 1 0 0 0 -.668-1.128zm-6.316 4.949h4.256l-1.091 6h-3.165zm26 47a1 1 0 0 1 -1 1h-34a1 1 0 0 1 -1-1v-42a1 1 0 0 1 1-1h7v3a1 1 0 0 0 1 1h18a1 1 0 0 0 1-1v-3h7a1 1 0 0 1 1 1z" fill="url(#New_Gradient_Swatch)"/><path d="m18 35h8v2h-8z" fill="url(#New_Gradient_Swatch-2)"/><path d="m28 35h4v2h-4z" fill="url(#New_Gradient_Swatch-3)"/><path d="m34 35h12v2h-12z" fill="url(#New_Gradient_Swatch-4)"/><path d="m18 39h6v2h-6z" fill="url(#New_Gradient_Swatch-5)"/><path d="m26 39h2v2h-2z" fill="url(#New_Gradient_Swatch-6)"/><path d="m30 39h16v2h-16z" fill="url(#New_Gradient_Swatch-7)"/><path d="m18 43h8v2h-8z" fill="url(#New_Gradient_Swatch-2)"/><path d="m28 43h12v2h-12z" fill="url(#New_Gradient_Swatch-9)"/><path d="m42 43h4v2h-4z" fill="url(#New_Gradient_Swatch-10)"/><path d="m18 47h28v2h-28z" fill="url(#New_Gradient_Swatch)"/><path d="m18 51h6v2h-6z" fill="url(#New_Gradient_Swatch-5)"/><path d="m26 51h16v2h-16z" fill="url(#New_Gradient_Swatch-9)"/><path d="m44 51h2v2h-2z" fill="url(#New_Gradient_Swatch-14)"/><path d="m18 55h2v2h-2z" fill="url(#New_Gradient_Swatch-15)"/><path d="m22 55h6v2h-6z" fill="url(#New_Gradient_Swatch-16)"/><path d="m30 55h16v2h-16z" fill="url(#New_Gradient_Swatch-7)"/><path d="m18 27h2v2h-2z" fill="url(#New_Gradient_Swatch-15)"/><path d="m22 27h24v2h-24z" fill="url(#New_Gradient_Swatch-9)"/><path d="m18 31h28v2h-28z" fill="url(#New_Gradient_Swatch)"/><path d="m18 23h10v2h-10z" fill="url(#New_Gradient_Swatch-21)"/><path d="m30 23h10v2h-10z" fill="url(#New_Gradient_Swatch-22)"/><path d="m42 23h4v2h-4z" fill="url(#New_Gradient_Swatch-10)"/></g></svg>