<?xml version="1.0" ?><svg enable-background="new 0 0 224 224" id="mailbox" version="1.1" viewBox="0 0 224 224" xml:space="preserve" xmlns="http://www.w3.org/2000/svg" xmlns:xlink="http://www.w3.org/1999/xlink"><g><path d="M20,8h-4V4c0-2.209-1.7891-4-4-4S8,1.791,8,4v4H4c-2.2109,0-4,1.791-4,4s1.7891,4,4,4h4v4   c0,2.209,1.7891,4,4,4s4-1.791,4-4v-4h4c2.2109,0,4-1.791,4-4S22.2109,8,20,8z" fill="#FAE6F5"/><path d="M60,8h-4V4c0-2.209-1.7891-4-4-4s-4,1.791-4,4v4h-4c-2.2109,0-4,1.791-4,4s1.7891,4,4,4h4v4   c0,2.209,1.7891,4,4,4s4-1.791,4-4v-4h4c2.2109,0,4-1.791,4-4S62.2109,8,60,8z" fill="#FAE6F5"/><path d="M100,8h-4V4c0-2.209-1.7891-4-4-4s-4,1.791-4,4v4h-4c-2.2109,0-4,1.791-4,4s1.7891,4,4,4h4v4   c0,2.209,1.7891,4,4,4s4-1.791,4-4v-4h4c2.2109,0,4-1.791,4-4S102.2109,8,100,8z" fill="#FAE6F5"/><path d="M140,8h-4V4c0-2.209-1.7891-4-4-4s-4,1.791-4,4v4h-4c-2.2109,0-4,1.791-4,4s1.7891,4,4,4h4v4   c0,2.209,1.7891,4,4,4s4-1.791,4-4v-4h4c2.2109,0,4-1.791,4-4S142.2109,8,140,8z" fill="#FAE6F5"/><path d="M180,8h-4V4c0-2.209-1.7891-4-4-4s-4,1.791-4,4v4h-4c-2.2109,0-4,1.791-4,4s1.7891,4,4,4h4v4   c0,2.209,1.7891,4,4,4s4-1.791,4-4v-4h4c2.2109,0,4-1.791,4-4S182.2109,8,180,8z" fill="#FAE6F5"/><path d="M204,16h4v4c0,2.209,1.7891,4,4,4s4-1.791,4-4v-4h4c2.2109,0,4-1.791,4-4s-1.7891-4-4-4h-4V4   c0-2.209-1.7891-4-4-4s-4,1.791-4,4v4h-4c-2.2109,0-4,1.791-4,4S201.7891,16,204,16z" fill="#FAE6F5"/><path d="M20,48h-4v-4c0-2.209-1.7891-4-4-4s-4,1.791-4,4v4H4c-2.2109,0-4,1.791-4,4s1.7891,4,4,4h4v4   c0,2.209,1.7891,4,4,4s4-1.791,4-4v-4h4c2.2109,0,4-1.791,4-4S22.2109,48,20,48z" fill="#FAE6F5"/><path d="M60,48h-4v-4c0-2.209-1.7891-4-4-4s-4,1.791-4,4v4h-4c-2.2109,0-4,1.791-4,4s1.7891,4,4,4h4v4   c0,2.209,1.7891,4,4,4s4-1.791,4-4v-4h4c2.2109,0,4-1.791,4-4S62.2109,48,60,48z" fill="#FAE6F5"/><path d="M100,48h-4v-4c0-2.209-1.7891-4-4-4s-4,1.791-4,4v4h-4c-2.2109,0-4,1.791-4,4s1.7891,4,4,4h4v4   c0,2.209,1.7891,4,4,4s4-1.791,4-4v-4h4c2.2109,0,4-1.791,4-4S102.2109,48,100,48z" fill="#FAE6F5"/><path d="M140,48h-4v-4c0-2.209-1.7891-4-4-4s-4,1.791-4,4v4h-4c-2.2109,0-4,1.791-4,4s1.7891,4,4,4h4v4   c0,2.209,1.7891,4,4,4s4-1.791,4-4v-4h4c2.2109,0,4-1.791,4-4S142.2109,48,140,48z" fill="#FAE6F5"/><path d="M180,48h-4v-4c0-2.209-1.7891-4-4-4s-4,1.791-4,4v4h-4c-2.2109,0-4,1.791-4,4s1.7891,4,4,4h4v4   c0,2.209,1.7891,4,4,4s4-1.791,4-4v-4h4c2.2109,0,4-1.791,4-4S182.2109,48,180,48z" fill="#FAE6F5"/><path d="M220,48h-4v-4c0-2.209-1.7891-4-4-4s-4,1.791-4,4v4h-4c-2.2109,0-4,1.791-4,4s1.7891,4,4,4h4v4   c0,2.209,1.7891,4,4,4s4-1.791,4-4v-4h4c2.2109,0,4-1.791,4-4S222.2109,48,220,48z" fill="#FAE6F5"/><path d="M20,88h-4v-4c0-2.209-1.7891-4-4-4s-4,1.791-4,4v4H4c-2.2109,0-4,1.791-4,4s1.7891,4,4,4h4v4   c0,2.209,1.7891,4,4,4s4-1.791,4-4v-4h4c2.2109,0,4-1.791,4-4S22.2109,88,20,88z" fill="#FAE6F5"/><path d="M60,88h-4v-4c0-2.209-1.7891-4-4-4s-4,1.791-4,4v4h-4c-2.2109,0-4,1.791-4,4s1.7891,4,4,4h4v4   c0,2.209,1.7891,4,4,4s4-1.791,4-4v-4h4c2.2109,0,4-1.791,4-4S62.2109,88,60,88z" fill="#FAE6F5"/><path d="M100,88h-4v-4c0-2.209-1.7891-4-4-4s-4,1.791-4,4v4h-4c-2.2109,0-4,1.791-4,4s1.7891,4,4,4h4v4   c0,2.209,1.7891,4,4,4s4-1.791,4-4v-4h4c2.2109,0,4-1.791,4-4S102.2109,88,100,88z" fill="#FAE6F5"/><path d="M140,88h-4v-4c0-2.209-1.7891-4-4-4s-4,1.791-4,4v4h-4c-2.2109,0-4,1.791-4,4s1.7891,4,4,4h4v4   c0,2.209,1.7891,4,4,4s4-1.791,4-4v-4h4c2.2109,0,4-1.791,4-4S142.2109,88,140,88z" fill="#FAE6F5"/><path d="M180,88h-4v-4c0-2.209-1.7891-4-4-4s-4,1.791-4,4v4h-4c-2.2109,0-4,1.791-4,4s1.7891,4,4,4h4v4   c0,2.209,1.7891,4,4,4s4-1.791,4-4v-4h4c2.2109,0,4-1.791,4-4S182.2109,88,180,88z" fill="#FAE6F5"/><path d="M220,88h-4v-4c0-2.209-1.7891-4-4-4s-4,1.791-4,4v4h-4c-2.2109,0-4,1.791-4,4s1.7891,4,4,4h4v4   c0,2.209,1.7891,4,4,4s4-1.791,4-4v-4h4c2.2109,0,4-1.791,4-4S222.2109,88,220,88z" fill="#FAE6F5"/><path d="M20,128h-4v-4c0-2.209-1.7891-4-4-4s-4,1.791-4,4v4H4c-2.2109,0-4,1.791-4,4s1.7891,4,4,4h4v4   c0,2.209,1.7891,4,4,4s4-1.791,4-4v-4h4c2.2109,0,4-1.791,4-4S22.2109,128,20,128z" fill="#FAE6F5"/><path d="M60,128h-4v-4c0-2.209-1.7891-4-4-4s-4,1.791-4,4v4h-4c-2.2109,0-4,1.791-4,4s1.7891,4,4,4h4v4   c0,2.209,1.7891,4,4,4s4-1.791,4-4v-4h4c2.2109,0,4-1.791,4-4S62.2109,128,60,128z" fill="#FAE6F5"/><path d="M100,128h-4v-4c0-2.209-1.7891-4-4-4s-4,1.791-4,4v4h-4c-2.2109,0-4,1.791-4,4s1.7891,4,4,4h4v4   c0,2.209,1.7891,4,4,4s4-1.791,4-4v-4h4c2.2109,0,4-1.791,4-4S102.2109,128,100,128z" fill="#FAE6F5"/><path d="M140,128h-4v-4c0-2.209-1.7891-4-4-4s-4,1.791-4,4v4h-4c-2.2109,0-4,1.791-4,4s1.7891,4,4,4h4v4   c0,2.209,1.7891,4,4,4s4-1.791,4-4v-4h4c2.2109,0,4-1.791,4-4S142.2109,128,140,128z" fill="#FAE6F5"/><path d="M180,128h-4v-4c0-2.209-1.7891-4-4-4s-4,1.791-4,4v4h-4c-2.2109,0-4,1.791-4,4s1.7891,4,4,4h4v4   c0,2.209,1.7891,4,4,4s4-1.791,4-4v-4h4c2.2109,0,4-1.791,4-4S182.2109,128,180,128z" fill="#FAE6F5"/><path d="M220,128h-4v-4c0-2.209-1.7891-4-4-4s-4,1.791-4,4v4h-4c-2.2109,0-4,1.791-4,4s1.7891,4,4,4h4v4   c0,2.209,1.7891,4,4,4s4-1.791,4-4v-4h4c2.2109,0,4-1.791,4-4S222.2109,128,220,128z" fill="#FAE6F5"/><path d="M20,168h-4v-4c0-2.209-1.7891-4-4-4s-4,1.791-4,4v4H4c-2.2109,0-4,1.791-4,4s1.7891,4,4,4h4v4   c0,2.209,1.7891,4,4,4s4-1.791,4-4v-4h4c2.2109,0,4-1.791,4-4S22.2109,168,20,168z" fill="#FAE6F5"/><path d="M60,168h-4v-4c0-2.209-1.7891-4-4-4s-4,1.791-4,4v4h-4c-2.2109,0-4,1.791-4,4s1.7891,4,4,4h4v4   c0,2.209,1.7891,4,4,4s4-1.791,4-4v-4h4c2.2109,0,4-1.791,4-4S62.2109,168,60,168z" fill="#FAE6F5"/><path d="M100,168h-4v-4c0-2.209-1.7891-4-4-4s-4,1.791-4,4v4h-4c-2.2109,0-4,1.791-4,4s1.7891,4,4,4h4v4   c0,2.209,1.7891,4,4,4s4-1.791,4-4v-4h4c2.2109,0,4-1.791,4-4S102.2109,168,100,168z" fill="#FAE6F5"/><path d="M140,168h-4v-4c0-2.209-1.7891-4-4-4s-4,1.791-4,4v4h-4c-2.2109,0-4,1.791-4,4s1.7891,4,4,4h4v4   c0,2.209,1.7891,4,4,4s4-1.791,4-4v-4h4c2.2109,0,4-1.791,4-4S142.2109,168,140,168z" fill="#FAE6F5"/><path d="M180,168h-4v-4c0-2.209-1.7891-4-4-4s-4,1.791-4,4v4h-4c-2.2109,0-4,1.791-4,4s1.7891,4,4,4h4v4   c0,2.209,1.7891,4,4,4s4-1.791,4-4v-4h4c2.2109,0,4-1.791,4-4S182.2109,168,180,168z" fill="#FAE6F5"/><path d="M220,168h-4v-4c0-2.209-1.7891-4-4-4s-4,1.791-4,4v4h-4c-2.2109,0-4,1.791-4,4s1.7891,4,4,4h4v4   c0,2.209,1.7891,4,4,4s4-1.791,4-4v-4h4c2.2109,0,4-1.791,4-4S222.2109,168,220,168z" fill="#FAE6F5"/><path d="M20,208h-4v-4c0-2.209-1.7891-4-4-4s-4,1.791-4,4v4H4c-2.2109,0-4,1.791-4,4s1.7891,4,4,4h4v4   c0,2.209,1.7891,4,4,4s4-1.791,4-4v-4h4c2.2109,0,4-1.791,4-4S22.2109,208,20,208z" fill="#FAE6F5"/><path d="M60,208h-4v-4c0-2.209-1.7891-4-4-4s-4,1.791-4,4v4h-4c-2.2109,0-4,1.791-4,4s1.7891,4,4,4h4v4   c0,2.209,1.7891,4,4,4s4-1.791,4-4v-4h4c2.2109,0,4-1.791,4-4S62.2109,208,60,208z" fill="#FAE6F5"/><path d="M100,208h-4v-4c0-2.209-1.7891-4-4-4s-4,1.791-4,4v4h-4c-2.2109,0-4,1.791-4,4s1.7891,4,4,4h4v4   c0,2.209,1.7891,4,4,4s4-1.791,4-4v-4h4c2.2109,0,4-1.791,4-4S102.2109,208,100,208z" fill="#FAE6F5"/><path d="M140,208h-4v-4c0-2.209-1.7891-4-4-4s-4,1.791-4,4v4h-4c-2.2109,0-4,1.791-4,4s1.7891,4,4,4h4v4   c0,2.209,1.7891,4,4,4s4-1.791,4-4v-4h4c2.2109,0,4-1.791,4-4S142.2109,208,140,208z" fill="#FAE6F5"/><path d="M180,208h-4v-4c0-2.209-1.7891-4-4-4s-4,1.791-4,4v4h-4c-2.2109,0-4,1.791-4,4s1.7891,4,4,4h4v4   c0,2.209,1.7891,4,4,4s4-1.791,4-4v-4h4c2.2109,0,4-1.791,4-4S182.2109,208,180,208z" fill="#FAE6F5"/><path d="M220,208h-4v-4c0-2.209-1.7891-4-4-4s-4,1.791-4,4v4h-4c-2.2109,0-4,1.791-4,4s1.7891,4,4,4h4v4   c0,2.209,1.7891,4,4,4s4-1.791,4-4v-4h4c2.2109,0,4-1.791,4-4S222.2109,208,220,208z" fill="#FAE6F5"/></g><g><path d="M217.6288,156.7246L174.9061,25.2637c-0.5352-1.6484-2.0703-2.7637-3.8047-2.7637H48.8788   c-1.7305,0-3.2617,1.1113-3.8008,2.7559L2.0233,156.7168c-0.1328,0.4004-0.1992,0.8203-0.1992,1.2441V202.5c0,2.209,1.7891,4,4,4   h208c2.2109,0,4-1.791,4-4v-44.5391C217.8241,157.541,217.7577,157.123,217.6288,156.7246z" fill="#643458"/><polygon fill="#FDCA8D" points="209.8241,198.5 9.8241,198.5 9.8241,158.5996 51.7772,30.5 168.1952,30.5 209.8241,158.5938  "/><path d="M155.6873,54.2676c-1.2539-0.373-2.6289-0.0996-3.6562,0.7324l-42.0859,34.2305l-42.082-34.2422   c-1.0234-0.8301-2.3984-1.1055-3.6562-0.7324c-1.2656,0.373-2.2656,1.3477-2.6719,2.6035l-24.7461,76.4043   c-0.3945,1.2168-0.1836,2.5527,0.5703,3.5879c0.7539,1.0332,1.9531,1.6484,3.2344,1.6484h138.707   c1.2812,0,2.4805-0.6133,3.2344-1.6465c0.7539-1.0352,0.9648-2.3691,0.5703-3.5859l-24.7461-76.3965   C157.953,55.6152,156.953,54.6406,155.6873,54.2676z" fill="#643458"/><path d="M46.0936,130.4961l21.25-65.6152l40.0781,32.6094c1.4688,1.1953,3.5781,1.1953,5.0469,0l40.0781-32.5996   L173.8006,130.5L46.0936,130.4961z" fill="#ED5175"/></g></svg>