<?xml version="1.0" ?><svg enable-background="new 0 0 224 224" id="whatsup" version="1.1" viewBox="0 0 224 224" xml:space="preserve" xmlns="http://www.w3.org/2000/svg" xmlns:xlink="http://www.w3.org/1999/xlink"><g><path d="M20,8h-4V4c0-2.2109-1.7891-4-4-4S8,1.7891,8,4v4H4c-2.2109,0-4,1.7891-4,4s1.7891,4,4,4h4v4   c0,2.2109,1.7891,4,4,4s4-1.7891,4-4v-4h4c2.2109,0,4-1.7891,4-4S22.2109,8,20,8z" fill="#FAE6F5"/><path d="M60,8h-4V4c0-2.2109-1.7891-4-4-4s-4,1.7891-4,4v4h-4c-2.2109,0-4,1.7891-4,4s1.7891,4,4,4h4v4   c0,2.2109,1.7891,4,4,4s4-1.7891,4-4v-4h4c2.2109,0,4-1.7891,4-4S62.2109,8,60,8z" fill="#FAE6F5"/><path d="M100,8h-4V4c0-2.2109-1.7891-4-4-4s-4,1.7891-4,4v4h-4c-2.2109,0-4,1.7891-4,4s1.7891,4,4,4h4v4   c0,2.2109,1.7891,4,4,4s4-1.7891,4-4v-4h4c2.2109,0,4-1.7891,4-4S102.2109,8,100,8z" fill="#FAE6F5"/><path d="M140,8h-4V4c0-2.2109-1.7891-4-4-4s-4,1.7891-4,4v4h-4c-2.2109,0-4,1.7891-4,4s1.7891,4,4,4h4v4   c0,2.2109,1.7891,4,4,4s4-1.7891,4-4v-4h4c2.2109,0,4-1.7891,4-4S142.2109,8,140,8z" fill="#FAE6F5"/><path d="M180,8h-4V4c0-2.2109-1.7891-4-4-4s-4,1.7891-4,4v4h-4c-2.2109,0-4,1.7891-4,4s1.7891,4,4,4h4v4   c0,2.2109,1.7891,4,4,4s4-1.7891,4-4v-4h4c2.2109,0,4-1.7891,4-4S182.2109,8,180,8z" fill="#FAE6F5"/><path d="M204,16h4v4c0,2.2109,1.7891,4,4,4s4-1.7891,4-4v-4h4c2.2109,0,4-1.7891,4-4s-1.7891-4-4-4h-4V4   c0-2.2109-1.7891-4-4-4s-4,1.7891-4,4v4h-4c-2.2109,0-4,1.7891-4,4S201.7891,16,204,16z" fill="#FAE6F5"/><path d="M20,48h-4v-4c0-2.2109-1.7891-4-4-4s-4,1.7891-4,4v4H4c-2.2109,0-4,1.7891-4,4s1.7891,4,4,4h4v4   c0,2.2109,1.7891,4,4,4s4-1.7891,4-4v-4h4c2.2109,0,4-1.7891,4-4S22.2109,48,20,48z" fill="#FAE6F5"/><path d="M60,48h-4v-4c0-2.2109-1.7891-4-4-4s-4,1.7891-4,4v4h-4c-2.2109,0-4,1.7891-4,4s1.7891,4,4,4h4v4   c0,2.2109,1.7891,4,4,4s4-1.7891,4-4v-4h4c2.2109,0,4-1.7891,4-4S62.2109,48,60,48z" fill="#FAE6F5"/><path d="M100,48h-4v-4c0-2.2109-1.7891-4-4-4s-4,1.7891-4,4v4h-4c-2.2109,0-4,1.7891-4,4s1.7891,4,4,4h4v4   c0,2.2109,1.7891,4,4,4s4-1.7891,4-4v-4h4c2.2109,0,4-1.7891,4-4S102.2109,48,100,48z" fill="#FAE6F5"/><path d="M140,48h-4v-4c0-2.2109-1.7891-4-4-4s-4,1.7891-4,4v4h-4c-2.2109,0-4,1.7891-4,4s1.7891,4,4,4h4v4   c0,2.2109,1.7891,4,4,4s4-1.7891,4-4v-4h4c2.2109,0,4-1.7891,4-4S142.2109,48,140,48z" fill="#FAE6F5"/><path d="M180,48h-4v-4c0-2.2109-1.7891-4-4-4s-4,1.7891-4,4v4h-4c-2.2109,0-4,1.7891-4,4s1.7891,4,4,4h4v4   c0,2.2109,1.7891,4,4,4s4-1.7891,4-4v-4h4c2.2109,0,4-1.7891,4-4S182.2109,48,180,48z" fill="#FAE6F5"/><path d="M220,48h-4v-4c0-2.2109-1.7891-4-4-4s-4,1.7891-4,4v4h-4c-2.2109,0-4,1.7891-4,4s1.7891,4,4,4h4v4   c0,2.2109,1.7891,4,4,4s4-1.7891,4-4v-4h4c2.2109,0,4-1.7891,4-4S222.2109,48,220,48z" fill="#FAE6F5"/><path d="M20,88h-4v-4c0-2.2109-1.7891-4-4-4s-4,1.7891-4,4v4H4c-2.2109,0-4,1.7891-4,4s1.7891,4,4,4h4v4   c0,2.2109,1.7891,4,4,4s4-1.7891,4-4v-4h4c2.2109,0,4-1.7891,4-4S22.2109,88,20,88z" fill="#FAE6F5"/><path d="M60,88h-4v-4c0-2.2109-1.7891-4-4-4s-4,1.7891-4,4v4h-4c-2.2109,0-4,1.7891-4,4s1.7891,4,4,4h4v4   c0,2.2109,1.7891,4,4,4s4-1.7891,4-4v-4h4c2.2109,0,4-1.7891,4-4S62.2109,88,60,88z" fill="#FAE6F5"/><path d="M100,88h-4v-4c0-2.2109-1.7891-4-4-4s-4,1.7891-4,4v4h-4c-2.2109,0-4,1.7891-4,4s1.7891,4,4,4h4v4   c0,2.2109,1.7891,4,4,4s4-1.7891,4-4v-4h4c2.2109,0,4-1.7891,4-4S102.2109,88,100,88z" fill="#FAE6F5"/><path d="M140,88h-4v-4c0-2.2109-1.7891-4-4-4s-4,1.7891-4,4v4h-4c-2.2109,0-4,1.7891-4,4s1.7891,4,4,4h4v4   c0,2.2109,1.7891,4,4,4s4-1.7891,4-4v-4h4c2.2109,0,4-1.7891,4-4S142.2109,88,140,88z" fill="#FAE6F5"/><path d="M180,88h-4v-4c0-2.2109-1.7891-4-4-4s-4,1.7891-4,4v4h-4c-2.2109,0-4,1.7891-4,4s1.7891,4,4,4h4v4   c0,2.2109,1.7891,4,4,4s4-1.7891,4-4v-4h4c2.2109,0,4-1.7891,4-4S182.2109,88,180,88z" fill="#FAE6F5"/><path d="M220,88h-4v-4c0-2.2109-1.7891-4-4-4s-4,1.7891-4,4v4h-4c-2.2109,0-4,1.7891-4,4s1.7891,4,4,4h4v4   c0,2.2109,1.7891,4,4,4s4-1.7891,4-4v-4h4c2.2109,0,4-1.7891,4-4S222.2109,88,220,88z" fill="#FAE6F5"/><path d="M20,128h-4v-4c0-2.2109-1.7891-4-4-4s-4,1.7891-4,4v4H4c-2.2109,0-4,1.7891-4,4s1.7891,4,4,4h4v4   c0,2.2109,1.7891,4,4,4s4-1.7891,4-4v-4h4c2.2109,0,4-1.7891,4-4S22.2109,128,20,128z" fill="#FAE6F5"/><path d="M60,128h-4v-4c0-2.2109-1.7891-4-4-4s-4,1.7891-4,4v4h-4c-2.2109,0-4,1.7891-4,4s1.7891,4,4,4h4v4   c0,2.2109,1.7891,4,4,4s4-1.7891,4-4v-4h4c2.2109,0,4-1.7891,4-4S62.2109,128,60,128z" fill="#FAE6F5"/><path d="M100,128h-4v-4c0-2.2109-1.7891-4-4-4s-4,1.7891-4,4v4h-4c-2.2109,0-4,1.7891-4,4s1.7891,4,4,4h4v4   c0,2.2109,1.7891,4,4,4s4-1.7891,4-4v-4h4c2.2109,0,4-1.7891,4-4S102.2109,128,100,128z" fill="#FAE6F5"/><path d="M140,128h-4v-4c0-2.2109-1.7891-4-4-4s-4,1.7891-4,4v4h-4c-2.2109,0-4,1.7891-4,4s1.7891,4,4,4h4v4   c0,2.2109,1.7891,4,4,4s4-1.7891,4-4v-4h4c2.2109,0,4-1.7891,4-4S142.2109,128,140,128z" fill="#FAE6F5"/><path d="M180,128h-4v-4c0-2.2109-1.7891-4-4-4s-4,1.7891-4,4v4h-4c-2.2109,0-4,1.7891-4,4s1.7891,4,4,4h4v4   c0,2.2109,1.7891,4,4,4s4-1.7891,4-4v-4h4c2.2109,0,4-1.7891,4-4S182.2109,128,180,128z" fill="#FAE6F5"/><path d="M220,128h-4v-4c0-2.2109-1.7891-4-4-4s-4,1.7891-4,4v4h-4c-2.2109,0-4,1.7891-4,4s1.7891,4,4,4h4v4   c0,2.2109,1.7891,4,4,4s4-1.7891,4-4v-4h4c2.2109,0,4-1.7891,4-4S222.2109,128,220,128z" fill="#FAE6F5"/><path d="M20,168h-4v-4c0-2.2109-1.7891-4-4-4s-4,1.7891-4,4v4H4c-2.2109,0-4,1.7891-4,4s1.7891,4,4,4h4v4   c0,2.2109,1.7891,4,4,4s4-1.7891,4-4v-4h4c2.2109,0,4-1.7891,4-4S22.2109,168,20,168z" fill="#FAE6F5"/><path d="M60,168h-4v-4c0-2.2109-1.7891-4-4-4s-4,1.7891-4,4v4h-4c-2.2109,0-4,1.7891-4,4s1.7891,4,4,4h4v4   c0,2.2109,1.7891,4,4,4s4-1.7891,4-4v-4h4c2.2109,0,4-1.7891,4-4S62.2109,168,60,168z" fill="#FAE6F5"/><path d="M100,168h-4v-4c0-2.2109-1.7891-4-4-4s-4,1.7891-4,4v4h-4c-2.2109,0-4,1.7891-4,4s1.7891,4,4,4h4v4   c0,2.2109,1.7891,4,4,4s4-1.7891,4-4v-4h4c2.2109,0,4-1.7891,4-4S102.2109,168,100,168z" fill="#FAE6F5"/><path d="M140,168h-4v-4c0-2.2109-1.7891-4-4-4s-4,1.7891-4,4v4h-4c-2.2109,0-4,1.7891-4,4s1.7891,4,4,4h4v4   c0,2.2109,1.7891,4,4,4s4-1.7891,4-4v-4h4c2.2109,0,4-1.7891,4-4S142.2109,168,140,168z" fill="#FAE6F5"/><path d="M180,168h-4v-4c0-2.2109-1.7891-4-4-4s-4,1.7891-4,4v4h-4c-2.2109,0-4,1.7891-4,4s1.7891,4,4,4h4v4   c0,2.2109,1.7891,4,4,4s4-1.7891,4-4v-4h4c2.2109,0,4-1.7891,4-4S182.2109,168,180,168z" fill="#FAE6F5"/><path d="M220,168h-4v-4c0-2.2109-1.7891-4-4-4s-4,1.7891-4,4v4h-4c-2.2109,0-4,1.7891-4,4s1.7891,4,4,4h4v4   c0,2.2109,1.7891,4,4,4s4-1.7891,4-4v-4h4c2.2109,0,4-1.7891,4-4S222.2109,168,220,168z" fill="#FAE6F5"/><path d="M20,208h-4v-4c0-2.2109-1.7891-4-4-4s-4,1.7891-4,4v4H4c-2.2109,0-4,1.7891-4,4s1.7891,4,4,4h4v4   c0,2.2109,1.7891,4,4,4s4-1.7891,4-4v-4h4c2.2109,0,4-1.7891,4-4S22.2109,208,20,208z" fill="#FAE6F5"/><path d="M60,208h-4v-4c0-2.2109-1.7891-4-4-4s-4,1.7891-4,4v4h-4c-2.2109,0-4,1.7891-4,4s1.7891,4,4,4h4v4   c0,2.2109,1.7891,4,4,4s4-1.7891,4-4v-4h4c2.2109,0,4-1.7891,4-4S62.2109,208,60,208z" fill="#FAE6F5"/><path d="M100,208h-4v-4c0-2.2109-1.7891-4-4-4s-4,1.7891-4,4v4h-4c-2.2109,0-4,1.7891-4,4s1.7891,4,4,4h4v4   c0,2.2109,1.7891,4,4,4s4-1.7891,4-4v-4h4c2.2109,0,4-1.7891,4-4S102.2109,208,100,208z" fill="#FAE6F5"/><path d="M140,208h-4v-4c0-2.2109-1.7891-4-4-4s-4,1.7891-4,4v4h-4c-2.2109,0-4,1.7891-4,4s1.7891,4,4,4h4v4   c0,2.2109,1.7891,4,4,4s4-1.7891,4-4v-4h4c2.2109,0,4-1.7891,4-4S142.2109,208,140,208z" fill="#FAE6F5"/><path d="M180,208h-4v-4c0-2.2109-1.7891-4-4-4s-4,1.7891-4,4v4h-4c-2.2109,0-4,1.7891-4,4s1.7891,4,4,4h4v4   c0,2.2109,1.7891,4,4,4s4-1.7891,4-4v-4h4c2.2109,0,4-1.7891,4-4S182.2109,208,180,208z" fill="#FAE6F5"/><path d="M220,208h-4v-4c0-2.2109-1.7891-4-4-4s-4,1.7891-4,4v4h-4c-2.2109,0-4,1.7891-4,4s1.7891,4,4,4h4v4   c0,2.2109,1.7891,4,4,4s4-1.7891,4-4v-4h4c2.2109,0,4-1.7891,4-4S222.2109,208,220,208z" fill="#FAE6F5"/></g><g><path d="M113.8241,2.5c-57.3477,0-104,46.6523-104,104c0,19.5625,5.4375,38.5547,15.7461,55.0469   c-4.1055,14.3945-11.5273,41.6172-11.6055,41.9023c-0.3828,1.4062,0.0273,2.9102,1.0781,3.9258   c1.0508,1.0117,2.5703,1.3711,3.957,0.9492l41.2227-12.6836C76.3709,205.3672,94.8631,210.5,113.8241,210.5   c57.3476,0,104-46.6523,104-104S171.1717,2.5,113.8241,2.5z" fill="#643458"/><path d="M113.8241,202.5c-18.0742,0-35.6836-5.0508-50.9258-14.6055c-0.6445-0.4023-1.3828-0.6094-2.125-0.6094   c-0.3945,0-0.793,0.0586-1.1758,0.1758l-35.9961,11.0781c2.6445-9.6523,7.3945-26.918,10.1523-36.5195   c0.3202-1.1133,0.1406-2.3125-0.4883-3.2852c-10.1016-15.543-15.4414-33.6055-15.4414-52.2344c0-52.9336,43.0664-96,96-96   s96,43.0664,96,96S166.7577,202.5,113.8241,202.5z" fill="#FDCA8D"/><path d="M181.7655,131.0039c-7.3828-4.1016-13.6719-8.2109-18.2617-11.2109   c-3.5039-2.2891-6.0352-3.9414-7.8906-4.8711c-5.1875-2.5898-9.1211-0.7578-10.6172,0.75c-0.1875,0.1875-0.3555,0.3906-0.5,0.6094   c-5.3867,8.082-12.4258,15.8164-14.4844,16.2305c-2.3789-0.3711-13.5195-6.7031-24.5937-15.9258   c-11.3047-9.4219-18.4141-18.4414-19.4609-24.582c7.2539-7.4648,9.8672-12.1602,9.8672-17.5039   c0-5.5078-12.8477-28.5039-15.1719-30.8281c-2.332-2.3281-7.582-2.6914-15.6133-1.0938c-0.7734,0.1562-1.4844,0.5352-2.043,1.0938   c-0.9727,0.9727-23.7148,24.1602-12.9062,52.2656c11.8633,30.8438,42.3164,66.6953,81.1406,72.5195   c4.4102,0.6602,8.5469,0.9883,12.4219,0.9883c22.8398,0,36.3203-11.4922,40.1172-34.2891   C184.0467,133.4883,183.2459,131.8242,181.7655,131.0039z" fill="#643458"/><path d="M132.4178,160.543c-41.0547-6.1562-66.918-46.832-74.8594-67.4805   c-7.8789-20.4805,6.6523-38.7383,10.3008-42.8672c2.9688-0.5039,6.0898-0.7148,7.3945-0.5117   C77.9764,53.4727,87.41,71.293,87.8241,74.5c0,2.1016-0.6836,5.0234-8.8281,13.1719c-0.75,0.75-1.1719,1.7656-1.1719,2.8281   c0,20.9453,44.1758,50,52,50c6.8047,0,15.6758-11.4375,20.7266-18.8867c0.293,0.0117,0.7852,0.1133,1.4844,0.4648   c1.4414,0.7227,3.9375,2.3516,7.0938,4.4141c4.168,2.7227,9.7031,6.3398,16.2383,10.0859   C172.3983,150.8594,164.1053,165.3047,132.4178,160.543z" fill="#ED5175"/></g></svg>