<?xml version="1.0" encoding="utf-8"?>
<!-- Svg Vector Icons : http://www.onlinewebfonts.com/icon -->
<!DOCTYPE svg PUBLIC "-//W3C//DTD SVG 1.1//EN" "http://www.w3.org/Graphics/SVG/1.1/DTD/svg11.dtd">
<svg version="1.1" xmlns="http://www.w3.org/2000/svg" xmlns:xlink="http://www.w3.org/1999/xlink" x="0px" y="0px" viewBox="0 0 1000 1000" enable-background="new 0 0 1000 1000" xml:space="preserve">
<metadata> Svg Vector Icons : http://www.onlinewebfonts.com/icon </metadata>
<g><path d="M381.9,105.7c0,52.8,42.8,95.7,95.7,95.7c52.8,0,95.7-42.8,95.7-95.7c0-52.8-42.8-95.7-95.7-95.7C424.7,10,381.9,52.8,381.9,105.7z"/><path d="M486.8,395.8c0,0,9.3,41.7,64.8,78.7c55.6,37,128.1,57.1,149.7,21.6c21.6-35.5-12.3-68.6-109.6-109.6c-58.6-24.7-66.4-145.1-80.3-162c-11.9-14.5-67.9-34-101.9-20.1c-34,13.9-40.1,34-50.9,75.6c-4,15.4-8.7,33.1-14.1,52.5c8.3-34.3,14.1-60.2,14.1-60.2s12.3-71-60.2-83.3c-72.5-12.3-95.7,86.4-106.5,114.2c-10.8,27.8-44.8,123.5-7.7,166.7c37,43.2,92.6,57.1,112.7,23.1c1.6-2.7,3.4-6.4,5.2-10.9c-49.5,170.7-108.9,367.6-119.4,404.5c-15.4,54,27.8,75.6,49.4,83.3c21.6,7.7,61.7-18.5,83.3-67.9c21.6-49.4,108-271.6,117.3-279.3c9.3-7.7,49.4,13.9,78.7,52.5c29.3,38.6,20.1,75.6,13.9,121.9c-6.2,46.3-30.9,162.1,24.7,160.5c55.6-1.5,66.4-47.8,81.8-152.8c15.4-104.9,41.7-129.6-18.5-183.7C553.2,567.1,474.5,490,477.6,473C480.7,456,486.8,395.8,486.8,395.8z"/><path d="M818.7,243.4c-9.2-1.7-18.1,4.3-19.8,13.5l-134.3,713c-1.7,9.2,4.3,18.1,13.5,19.8c1.1,0.2,2.1,0.3,3.2,0.3c8,0,15.1-5.7,16.6-13.8l134.3-713C834,254,827.9,245.1,818.7,243.4z"/></g>
</svg>