<?xml version="1.0" encoding="utf-8"?>
<!-- Svg Vector Icons : http://www.onlinewebfonts.com/icon -->
<!DOCTYPE svg PUBLIC "-//W3C//DTD SVG 1.1//EN" "http://www.w3.org/Graphics/SVG/1.1/DTD/svg11.dtd">
<svg version="1.1" xmlns="http://www.w3.org/2000/svg" xmlns:xlink="http://www.w3.org/1999/xlink" x="0px" y="0px" viewBox="0 0 1000 1000" enable-background="new 0 0 1000 1000" xml:space="preserve">
<metadata> Svg Vector Icons : http://www.onlinewebfonts.com/icon </metadata>
<g><g transform="translate(0.000000,511.000000) scale(0.100000,-0.100000)"><path d="M4164.9,5005c-263.2-48-437.9-136.4-616.6-315c-220.9-219-313.1-443.7-313.1-758.7c0-299.7,99.9-543.6,307.3-751c215.1-215.1,464.8-318.9,768.3-318.9c597.4,0,1068,472.5,1069.9,1069.9c0,305.4-99.9,545.5-313.1,758.7c-195.9,197.8-428.3,301.6-699.2,315C4282.1,5010.7,4191.8,5010.7,4164.9,5005z M4591.3,4559.3c142.1-69.2,257.4-184.4,326.5-326.5c57.6-115.3,63.4-144.1,63.4-301.6c0-146-7.7-188.2-49.9-278.5c-249.7-528.2-996.9-530.2-1242.8-3.8c-44.2,94.1-51.9,134.5-51.9,292c0,153.7,7.7,197.8,46.1,278.5c82.6,167.1,228.6,299.7,403.4,366.9C4195.6,4628.5,4479.9,4613.1,4591.3,4559.3z"/><path d="M6977,4997.3c-105.6-15.4-242-98-320.8-197.8c-36.5-44.2-353.4-534-705-1089.1c-351.5-555.1-653.1-1021.9-670.4-1039.2c-30.7-30.7-268.9-57.6-1037.3-115.3c-340-25-457.2-65.3-943.1-328.5c-217.1-117.2-411.1-224.7-434.1-240.1c-44.2-28.8-65.3-5.8-695.3,735.7c-313.1,370.7-391.9,441.8-530.2,487.9c-167.1,53.8-414.9-26.9-510.9-167.1c-42.3-63.4-48-88.4-46.1-243.9c0-268.9,69.2-411.1,480.2-996.9c662.7-943.1,829.8-1112.2,1098.7-1112.2c92.2,0,182.5,26.9,503.3,146c215.1,80.7,403.4,146,416.8,146c13.4,0,25-19.2,26.9-42.3c0-25,42.3-389.9,92.2-812.5l90.3-768.3l-238.2-566.7c-582-1383-1058.4-2556.6-1112.2-2737.2c-69.1-232.4,3.8-545.5,161.4-683.8c190.2-165.2,476.4-209.4,703-107.6c201.7,92.2,318.9,234.3,568.6,695.4c174.8,322.7,1150.6,2043.8,1238.9,2184c17.3,26.9,46.1,34.6,149.8,34.6h130.6l3.9-1344.6l5.7-1344.6l51.9-49.9c71.1-71.1,190.1-71.1,261.2,0l51.8,49.9l11.5,735.7c7.7,403.4,13.5,1033.4,15.4,1400.3l1.9,664.6l92.2,53.8c122.9,71.1,365,242,537.8,378.4c76.8,61.5,144.1,109.5,147.9,105.6c3.9-3.8,34.6-261.2,67.2-572.4c63.4-608.9,86.4-729.9,167.1-895.1c67.2-138.3,222.8-282.4,340-315c251.6-71.1,537.8,74.9,655,334.2c92.2,199.8,94.1,276.6,28.8,1125.6C7731.9-169.8,7683.9,354.6,7657,437.2c-69.1,195.9-257.4,343.8-484.1,382.2L7098,831l86.4,90.3c301.6,318.9,712.6,887.4,973.8,1354.2c466.8,831.7,747.2,1715.3,756.8,2379.9c3.8,230.5,1.9,243.9-42.3,292c-25,26.9-69.2,53.8-99.9,59.6c-73,17.3-188.3-40.3-213.2-103.7c-9.6-26.9-26.9-161.4-36.5-297.7c-96-1342.7-1037.3-3015.7-2262.7-4024.2c-107.6-86.4-126.8-98-132.5-67.2c-1.9,21.1,25,349.6,61.4,733.8l67.2,695.4l276.6,534c850.9,1634.6,973.9,1895.9,973.9,2076.4C7507.1,4824.4,7253.6,5037.6,6977,4997.3z M7099.9,4534.4c7.7-78.8-117.2-334.2-795.2-1644.2l-434.1-835.6l-88.3-943.1L5692,166.4L5423,30c-292-146-480.2-219-749.1-286.2c-194-49.9-493.7-90.3-512.9-71.1c-5.8,7.7-51.9,359.2-99.9,781.8c-50,422.6-98,804.8-109.5,849c-23,86.4-74.9,134.5-167.1,151.7c-36.5,7.7-205.5-46.1-576.3-182.5c-286.2-107.6-532.1-194-545.5-194c-53.8,0-165.2,119.1-395.7,428.3c-512.9,683.8-770.3,1087.2-802.9,1258.1c-11.5,57.6-9.6,61.5,46.1,61.5c50,0,88.4-36.5,313.1-301.6c781.8-922,860.5-1004.6,956.6-1004.6c26.9,0,276.6,124.9,559,278.5c280.4,153.7,557.1,293.9,614.7,315c71.1,25,209.4,44.2,422.6,59.6c578.2,40.3,1050.7,92.2,1104.5,121c38.4,19.2,253.6,343.8,753,1129.5c384.2,607,720.3,1121.8,749.1,1146.7C7050,4632.3,7092.3,4618.9,7099.9,4534.4z M7215.2,394.9c23-15.4,49.9-44.2,61.4-63.4c26.9-51.9,211.3-2310.8,211.3-2581.6c-1.9-165.2-51.8-274.7-147.9-313.1l-73-30.7l-59.5,69.2c-38.4,44.2-73,115.3-92.2,190.2c-17.3,65.3-65.3,455.2-107.6,866.3c-42.2,411-82.6,756.8-90.3,768.3c-55.7,101.8-174.8,149.8-257.4,105.6c-25-13.4-159.4-115.2-295.8-228.6c-288.1-236.3-572.4-443.7-704.9-510.9c-138.3-69.2-318.8-105.6-522.5-101.8c-197.9,3.8-243.9-15.4-309.3-126.8C4531.8-2071.4,3738.5-3466,3567.5-3781c-124.8-226.7-249.7-439.9-276.6-476.4c-73-90.3-159.4-138.3-249.7-138.3c-157.5,0-259.3,124.9-232.4,288.1c15.4,92.2,324.6,870.1,799.1,2007.3c203.6,486,414.9,991.2,470.6,1123.7l99.9,240.1l171,21.1c551.3,69.1,1027.6,245.9,1630.8,603.1c357.3,211.3,789.5,436,947,491.7C7076.9,433.4,7155.7,437.2,7215.2,394.9z"/></g></g>
</svg>