<?xml version="1.0" encoding="utf-8"?>
<!-- Svg Vector Icons : http://www.onlinewebfonts.com/icon -->
<!DOCTYPE svg PUBLIC "-//W3C//DTD SVG 1.1//EN" "http://www.w3.org/Graphics/SVG/1.1/DTD/svg11.dtd">
<svg version="1.1" xmlns="http://www.w3.org/2000/svg" xmlns:xlink="http://www.w3.org/1999/xlink" x="0px" y="0px" viewBox="0 0 1000 1000" enable-background="new 0 0 1000 1000" xml:space="preserve">
<metadata> Svg Vector Icons : http://www.onlinewebfonts.com/icon </metadata>
<g><g transform="translate(0.000000,511.000000) scale(0.100000,-0.100000)"><path d="M2737.1,4979.1c-224.4-74-428.6-246.8-538.5-462.2l-62.8-123.4l-6.7-2376.3c-6.7-2618.6-9-2533.4,132.4-2755.5c83-127.9,210.9-246.8,332.1-309.6l89.8-44.9l6.7-1622.3l6.7-1620.1L2764-4470c80.8-161.6,206.4-262.5,370.2-302.9c150.3-35.9,280.5-13.5,428.6,74c134.6,80.8,251.3,244.6,276,390.5c24.7,161.6,15.7,8499.9-11.2,8627.8c-56.1,269.3-233.4,491.4-486.9,617.1c-101,49.3-161.6,62.8-316.4,67.3C2903.1,5008.3,2795.4,4999.4,2737.1,4979.1z"/><path d="M5135.8,4965.7c-143.6-87.5-139.1-20.2-139.1-1981.4c0-1954.5-4.5-1882.7,134.6-2057.7c38.2-47.1,121.2-112.2,184-143.6c101-49.4,145.9-58.3,325.4-58.3h208.7l4.5-2540.1l6.7-2542.4l69.6-123.4c233.4-412.9,780.9-410.6,1007.5,0l67.3,123.4l6.7,2542.4l4.5,2540.1h208.7c179.5,0,224.4,9,325.4,58.3c136.9,67.3,235.6,179.5,285,320.9c49.4,145.8,51.6,3619.5,2.2,3738.4c-87.5,208.7-379.2,222.1-498.1,24.7c-40.4-65.1-42.6-145.8-49.4-1532.6l-6.7-1465.3H7005h-280.5v1449.6c0,1308.2-4.5,1456.3-38.2,1528.1c-103.2,217.6-403.9,217.6-502.6,0c-40.4-89.8-42.6-168.3-42.6-1534.8V1869.1h-280.5h-278.3l-6.7,1465.3c-6.7,1386.7-9,1467.5-49.4,1532.6C5441,5008.3,5274.9,5051,5135.8,4965.7z"/></g></g>
</svg>