<?xml version="1.0" encoding="utf-8"?>
<!-- Svg Vector Icons : http://www.onlinewebfonts.com/icon -->
<!DOCTYPE svg PUBLIC "-//W3C//DTD SVG 1.1//EN" "http://www.w3.org/Graphics/SVG/1.1/DTD/svg11.dtd">
<svg version="1.1" xmlns="http://www.w3.org/2000/svg" xmlns:xlink="http://www.w3.org/1999/xlink" x="0px" y="0px" viewBox="0 0 1000 1000" enable-background="new 0 0 1000 1000" xml:space="preserve">
<metadata> Svg Vector Icons : http://www.onlinewebfonts.com/icon </metadata>
<g><g transform="translate(0.000000,511.000000) scale(0.100000,-0.100000)"><path d="M3952.7,3058.8c-276.2-75.9-3485-1272-3573-1329.6c-60.7-42.5-151.8-139.6-197.3-218.6c-69.8-121.4-85-179.1-82-343c3-179.1,63.8-361.3,631.4-1912.5c346.1-944.1,661.8-1766.8,701.3-1827.5c42.5-60.7,139.6-151.8,218.6-197.3c121.4-69.8,179.1-85,343-82c176.1,3.1,343,57.7,1572.5,507c758.9,279.3,1402.5,507,1432.9,507s674-227.7,1432.9-507c1229.5-452.3,1396.4-503.9,1572.5-507c163.9-3,221.6,12.2,343,82c78.9,45.5,176.1,136.6,218.6,197.3c39.5,60.7,355.2,883.4,701.3,1827.5c564.6,1542.1,628.4,1736.4,631.4,1912.5c3,163.9-12.1,221.6-82,343c-45.5,78.9-136.6,176.1-197.3,218.6c-60.7,39.5-883.4,355.2-1827.5,701.3c-1548.2,567.7-1733.4,628.4-1912.5,631.4c-163.9,3-221.6-12.1-343-82c-185.2-109.3-282.4-261.1-412.9-640.5c-54.6-160.9-112.3-291.4-124.5-291.4c-12.1,0-72.9,142.7-133.6,312.7c-136.6,382.5-218.6,510-397.7,613.2C4335.2,3052.8,4080.2,3095.3,3952.7,3058.8z M4238,2494.2c51.6-66.8,1247.7-3375.7,1247.7-3457.7c0-42.5-18.2-94.1-39.5-112.3c-66.8-51.6-3375.7-1247.7-3457.7-1247.7c-42.5,0-94.1,18.2-112.3,39.5c-54.6,66.8-1247.7,3375.7-1247.7,3463.7c0,45.5,24.3,94.1,57.7,115.4c118.4,72.9,3330.2,1232.5,3421.2,1235.5C4159.1,2533.7,4219.8,2515.5,4238,2494.2z M6621.1,1884c449.3-340,106.3-1074.6-431.1-928.9c-151.8,39.5-318.8,176.1-370.4,303.6c-54.6,133.6-24.3,394.6,57.7,513C6041.2,1999.4,6399.5,2054,6621.1,1884z M8567,1188.9c176.1-100.2,264.1-267.2,248.9-482.7c-27.3-461.4-558.6-661.8-883.4-333.9c-245.9,245.9-200.3,613.2,100.2,816.6C8172.3,1283,8400,1283,8567,1188.9z M7219.1,551.4c167-112.3,239.8-245.9,239.8-446.3c0-309.6-206.4-516.1-516.1-516.1s-516.1,206.4-516.1,516.1s206.4,516.1,516.1,516.1C7073.4,621.2,7140.2,603,7219.1,551.4z M7756.4-760.1c224.6-97.1,340-261.1,340-491.8c-3-488.7-610.2-710.3-925.9-337C6827.5-1182,7267.7-556.7,7756.4-760.1z"/><path d="M3372.8,1717.1c-324.8-148.7-415.9-552.5-185.2-813.6c288.4-327.9,780.2-218.6,904.7,200.4C4216.8,1519.8,3764.4,1902.3,3372.8,1717.1z"/><path d="M1691.1,1100.8c-255-130.5-361.2-415.9-248.9-667.9C1587.9,99,1991.6,1.9,2258.7,235.6c303.6,267.2,242.9,704.3-127.5,874.3C1970.4,1185.8,1852,1182.8,1691.1,1100.8z"/><path d="M3943.6,41.4c-297.5-151.8-373.4-567.7-148.8-813.6c85-91.1,285.4-185.2,400.7-185.2c154.8,0,337,106.3,428,242.9c100.2,151.8,115.4,382.5,33.4,537.3C4523.4,74.7,4201.6,171.9,3943.6,41.4z"/><path d="M2313.4-544.5c-197.3-85-346.1-364.3-306.6-570.7c94.1-503.9,758.9-601.1,989.6-142.7C3218-826.9,2759.6-350.2,2313.4-544.5z"/></g></g>
</svg>