<?xml version="1.0" encoding="utf-8"?>
<!-- Svg Vector Icons : http://www.onlinewebfonts.com/icon -->
<!DOCTYPE svg PUBLIC "-//W3C//DTD SVG 1.1//EN" "http://www.w3.org/Graphics/SVG/1.1/DTD/svg11.dtd">
<svg version="1.1" xmlns="http://www.w3.org/2000/svg" xmlns:xlink="http://www.w3.org/1999/xlink" x="0px" y="0px" viewBox="0 0 1000 1000" enable-background="new 0 0 1000 1000" xml:space="preserve">
<metadata> Svg Vector Icons : http://www.onlinewebfonts.com/icon </metadata>
<g><path d="M990,650.5V501.6h0c0-0.3,0-0.5,0-0.8v-0.6h0C989.3,229.2,770.2,9.6,500,9.6C229.8,9.6,10.7,229.2,10,500.3h0v150.2h0c0,0.1,0,0.2,0,0.3v283.9c0,30.7,24.9,55.6,55.6,55.6h134.1c30.7,0,55.6-24.9,55.6-55.6V650.8c0-30.7-24.9-55.6-55.6-55.6H68.8v-93.6h0c0-58.5,11.4-115.3,33.9-168.7c21.7-51.6,52.8-97.9,92.5-137.7c39.6-39.8,85.7-71,137.1-92.8c53.1-22.5,109.5-34,167.7-34c58.2,0,114.6,11.4,167.7,34c51.3,21.8,97.4,53,137.1,92.8c39.6,39.8,70.8,86.1,92.5,137.7c22.5,53.4,33.9,110.1,33.9,168.7v93.6H800.3c-30.7,0-55.6,24.9-55.6,55.6v283.9c0,30.7,24.9,55.6,55.6,55.6h134.1c30.7,0,55.6-24.9,55.6-55.6V650.8C990,650.7,990,650.6,990,650.5L990,650.5z M196.4,931.5H68.8V654.1h127.6V931.5z M931.2,931.5H803.6V654.1h127.6V931.5z"/></g>
</svg>