<?xml version="1.0" encoding="utf-8"?>
<!-- Svg Vector Icons : http://www.onlinewebfonts.com/icon -->
<!DOCTYPE svg PUBLIC "-//W3C//DTD SVG 1.1//EN" "http://www.w3.org/Graphics/SVG/1.1/DTD/svg11.dtd">
<svg version="1.1" xmlns="http://www.w3.org/2000/svg" xmlns:xlink="http://www.w3.org/1999/xlink" x="0px" y="0px" viewBox="0 0 1000 1000" enable-background="new 0 0 1000 1000" xml:space="preserve">
<metadata> Svg Vector Icons : http://www.onlinewebfonts.com/icon </metadata>
<g><g transform="translate(0.000000,512.000000) scale(0.100000,-0.100000)"><path d="M7056.1,5009.2c-520.2-97.9-883-535.6-885-1065.4c0-812,860-1322.6,1585.7-942.5c236.1,122.9,451.1,397.4,529.8,673.8c38.4,138.2,32.6,453-9.6,585.5c-49.9,149.7-165.1,339.8-274.5,447.3c-111.3,113.3-305.2,230.4-447.3,270.7C7428.5,5016.9,7173.1,5032.2,7056.1,5009.2z M7491.8,4584.9c155.5-57.6,330.2-234.2,387.8-389.7c49.9-136.3,55.6-345.5,13.4-468.4c-147.8-418.5-654.6-593.2-1017.4-351.3c-172.8,115.2-264.9,255.3-303.3,460.7c-46.1,241.9,63.3,520.2,257.2,658.4C7015.8,4627.2,7278.7,4661.7,7491.8,4584.9z"/><path d="M4195.8,3644.3c-36.5-9.6-92.1-28.8-120.9-40.3c-84.5-32.6-1349.5-1017.4-1506.9-1171c-251.5-247.6-322.5-489.5-207.3-700.7c71-130.5,159.3-184.3,314.8-193.9c245.7-17.3,297.5,5.8,1265.1,520.2l524.1,278.4l253.4-57.6c140.1-30.7,257.2-59.5,261.1-61.4c3.8-3.8-226.5-353.2-512.5-775.5c-284.1-420.4-550.9-835-593.2-917.6c-96-190-157.4-387.8-157.4-504.9c0-84.5-19.2-115.2-380.1-635.4l-378.2-547.1l-915.7-61.4c-502.9-32.6-959.8-69.1-1017.4-80.6c-403.1-84.5-623.9-382-527.9-714.1c73-247.6,291.8-380.1,725.6-439.6c195.8-26.9,1865.9-136.3,2090.5-138.2c201.6,0,318.7,32.6,470.3,138.2c111.3,76.8,178.5,163.2,583.6,742.9l351.3,501l328.3-215c575.9-376.2,646.9-424.2,646.9-435.8c0-7.7-161.3-408.9-357.1-892.6c-195.8-485.7-376.2-952.2-401.2-1038.5c-134.4-456.9-88.3-777.5,128.6-923.3c63.3-42.2,105.6-51.8,218.8-57.6c124.8-7.7,155.5-1.9,261.1,48c197.7,94.1,389.7,307.1,598.9,666.1c178.5,307.1,1146,2175,1176.8,2270.9c17.3,61.4,24.9,142,19.2,240c-9.6,186.2-86.4,355.1-218.8,478c-51.8,46.1-362.8,268.8-691.1,495.3c-376.3,255.3-595.1,416.6-587.4,431.9c51.8,88.3,648.8,1042.4,658.4,1053.9c7.7,7.7,63.3-105.6,124.8-255.3c163.2-395.5,261.1-526,464.6-627.7c101.7-48,111.3-49.9,453-46.1c529.8,5.8,1274.7,36.5,1410.9,59.5c320.6,53.7,510.6,178.5,560.5,368.6c42.2,153.6-26.9,378.2-142.1,466.5c-161.2,122.9-287.9,147.8-1115.3,211.2c-241.9,19.2-431.9,42.2-443.4,55.7c-11.5,11.5-153.6,322.5-316.7,691.1c-161.3,366.7-318.7,702.6-347.5,742.9c-36.5,51.8-199.6,170.8-514.5,382c-255.3,170.8-485.7,316.7-514.5,328.3c-94.1,36.5-1643.2,366.7-1750.7,374.3C4311,3661.6,4232.2,3655.8,4195.8,3644.3z M5195.9,3091.4l779.4-170.8l426.2-284.1l428.1-286l-9.6-90.2c-5.8-49.9-25-119-44.2-153.6c-17.3-34.6-339.8-554.8-716.1-1157.5c-610.4-979-683.4-1101.9-683.4-1172.9c0-53.7,13.4-94.1,38.4-122.8c21.1-23,347.4-253.4,723.7-510.6c376.2-259.2,706.4-495.3,733.3-527.9c67.2-78.7,94-190,71-280.3c-25-94.1-1096.1-2138.5-1219-2328.5c-115.2-178.5-184.3-261.1-287.9-339.8c-151.6-119-199.6-74.9-178.5,165.1c15.4,188.1,71,343.6,493.4,1384.1c211.2,520.2,383.9,967.5,383.9,990.5c0,111.3-36.5,140.1-921.4,725.6c-894.6,593.2-986.7,666.1-1067.3,837c-72.9,151.6-48,322.5,82.5,583.6c38.4,74.9,335.9,533.7,664.2,1019.3c526,779.4,597,892.6,602.8,969.4c7.7,72.9,0,94.1-42.2,138.2c-26.9,28.8-69.1,57.6-92.1,63.3c-455,105.6-865.8,188.1-925.3,186.2c-61.4-1.9-224.6-80.6-781.3-376.3c-673.8-357.1-835-433.8-917.6-433.8c-80.6,0-24.9,103.7,138.2,261.1c67.2,65.3,366.6,307.1,668,539.4c737.1,568.2,700.7,543.3,794.7,543.3C4382,3262.3,4767.8,3185.5,5195.9,3091.4z M7305.6,1292.7c107.5-245.7,211.2-462.6,232.3-485.7c55.7-59.5,126.7-71,798.6-126.7c694.9-55.7,783.2-72.9,783.2-144c0-99.8-186.2-124.8-1111.5-155.5c-800.5-25-785.1-26.9-877.3,117.1c-26.9,40.3-121,245.7-207.3,456.9L6766.2,1335l149.7,241.9c136.3,220.8,151.6,238,170.8,199.6C7098.3,1755.4,7196.2,1536.5,7305.6,1292.7z M3980.8-674.9c57.6-63.3,170.9-159.3,251.5-213.1c80.6-53.7,147.8-99.8,151.7-103.7c7.7-5.8-646.9-944.5-737.1-1057.7c-36.5-42.2-105.6-97.9-153.6-120.9c-99.8-49.9-61.4-51.8-1541.5,49.9c-911.8,61.4-1076.9,99.8-1076.9,243.8c0,88.3,61.4,140.1,211.2,176.6c80.6,21.1,466.5,53.7,1080.8,94.1c875.4,57.6,959.8,65.3,1007.8,101.8c28.8,21.1,193.9,243.8,366.7,493.3s318.7,453,324.4,453C3871.3-557.8,3923.2-609.7,3980.8-674.9z"/></g></g>
</svg>