<?xml version="1.0" encoding="utf-8"?>
<!-- Svg Vector Icons : http://www.onlinewebfonts.com/icon -->
<!DOCTYPE svg PUBLIC "-//W3C//DTD SVG 1.1//EN" "http://www.w3.org/Graphics/SVG/1.1/DTD/svg11.dtd">
<svg version="1.1" xmlns="http://www.w3.org/2000/svg" xmlns:xlink="http://www.w3.org/1999/xlink" x="0px" y="0px" viewBox="0 0 1000 1000" enable-background="new 0 0 1000 1000" xml:space="preserve">
<metadata> Svg Vector Icons : http://www.onlinewebfonts.com/icon </metadata>
<g><path d="M683.3,318.1c0,80,64.9,144.9,144.9,144.9c80,0,144.9-64.9,144.9-144.9c0-80-64.9-144.9-144.9-144.9C748.1,173.2,683.3,238.1,683.3,318.1z"/><path d="M66,635.8c21.9,9.7,52.5,21,90.4,29.3c107.4,23.5,219.1,12.6,331.9-32.4c68.8-27.4,139.1-43.9,208.8-49.1c18.3-1.4,36.5-1.9,54.7-1.7L623.5,359.1c-2.3-4-5.1-7.5-8.3-10.5c-1.3-1.6-2.8-3.1-4.5-4.5L416.1,185.4c-8.7-7.1-20.5-8.9-30.9-4.8L87.9,298.3c-15.9,6.3-23.6,24.2-17.3,40.1c6.2,15.5,23.5,23.3,39.1,17.7c4.1,0.4,8.3,0.1,12.5-1.2l245.2-76.7L483,386.9L84.1,616.7C76,621.4,69.9,628.1,66,635.8z"/><path d="M975.4,697L975.4,697c-1.9-1.4-48.7-32.6-132.6-48c-48.4-8.9-99.7-10.8-152.5-5.8c-65.4,6.2-133.4,23.3-202,50.6c-140.6,56-249.9,53.8-316.9,42.1c-72.4-12.6-112.4-38.8-112.8-39l0.1,0.1l0,0c-5-3.5-11.2-5.6-17.8-5.6c-17,0-30.9,13.8-30.9,30.9c0,10.5,5.2,19.7,13.2,25.3C32.6,755,78,788.9,154,809.8c41.1,11.3,84.2,17,128.6,17c8.3,0,16.7-0.2,25-0.6c65.9-3.1,134.4-18.7,203.4-46.2c141.6-56.4,251.9-61.5,319.5-55.8c64.8,5.4,103.8,21.5,112,25.1c4.8,3,10.4,4.8,16.5,4.8c17,0,30.9-13.8,30.9-30.9C990,712.2,984.2,702.5,975.4,697z"/></g>
</svg>