<?xml version="1.0" encoding="utf-8"?>
<!-- Svg Vector Icons : http://www.onlinewebfonts.com/icon -->
<!DOCTYPE svg PUBLIC "-//W3C//DTD SVG 1.1//EN" "http://www.w3.org/Graphics/SVG/1.1/DTD/svg11.dtd">
<svg version="1.1" xmlns="http://www.w3.org/2000/svg" xmlns:xlink="http://www.w3.org/1999/xlink" x="0px" y="0px" viewBox="0 0 1000 1000" enable-background="new 0 0 1000 1000" xml:space="preserve">
<metadata> Svg Vector Icons : http://www.onlinewebfonts.com/icon </metadata>
<g><path d="M929.8,690.2c-18.7-7.5-40-12-62.2-12c-22.1,0-43.4,4.4-62.2,12c-18.2,6.9-38.7,11.1-60.2,11.1c-21.4,0-42-4.2-60.2-11.1c-19.1-7.5-40.3-12-62.4-12c-22.1,0-43.4,4.4-62.2,12c-18.2,6.9-38.9,11.1-60.2,11.1c-21.4,0-41.9-4.2-60.4-11.1c-18.9-7.5-40.2-12-62-12c-22.3,0-43.5,4.4-62.4,12c-18.2,6.9-38.9,11.1-60.4,11.1c-21.2,0-41.9-4.2-60.2-11.1c-19-7.5-40.2-12-62.2-12c-22,0-43.3,4.4-62,12C52,697.2,31.5,701.3,10,701.3v77.8c21.5,0,42-4.2,60.6-11.3c18.7-7.3,39.9-11.7,62-11.7c22,0,43.2,4.4,62.2,11.7c18.3,7.1,39,11.3,60.2,11.3c21.5,0,42.2-4.2,60.4-11.3c18.8-7.3,40.1-11.7,62.4-11.7c21.8,0,43.2,4.4,62,11.7c18.4,7.1,38.9,11.3,60.4,11.3c21.2,0,42-4.2,60.2-11.3c18.9-7.3,40.1-11.7,62.2-11.7c22.1,0,43.3,4.4,62.4,11.7c18.2,7.1,38.8,11.3,60.2,11.3c21.5,0,42-4.2,60.2-11.3c18.8-7.3,40.2-11.7,62.2-11.7c22.2,0,43.5,4.4,62.2,11.7c18.3,7.1,38.8,11.3,60.2,11.3v-77.8C968.6,701.3,948.1,697.2,929.8,690.2 M731.5,400.5c0,64.4,47.5,116.8,116.6,116.8c64.4,0,116.6-52.5,116.6-116.8c0-64.5-52.2-116.7-116.6-116.7C783.7,283.8,731.5,336,731.5,400.5 M807.5,627.3L595.5,247l226.1-41.2c33.2-6.4,57.4-32.4,57.4-66c0-36.7-30-66.2-66.6-66.2c-2.6,0-5.1,0-7.6,0.3l-349.3,63.6c-24.8,5.6-57.1,41.5-38.6,85.8c1,2.3,2,4.5,2.9,6.9L511.1,395L151.3,627.4L807.5,627.3z M867.6,825.7c-22.1,0-43.4,4.4-62.2,11.9c-18.2,6.9-38.7,11.1-60.2,11.1c-21.4,0-42-4.1-60.2-11.1c-19.1-7.6-40.3-11.9-62.4-11.9c-22.1,0-43.4,4.4-62.2,11.9c-18.2,6.9-38.9,11.1-60.2,11.1c-21.4,0-41.9-4.1-60.4-11.1c-18.9-7.6-40.2-11.9-62-11.9c-22.3,0-43.5,4.4-62.4,11.9c-18.2,6.9-38.9,11.1-60.4,11.1c-21.2,0-41.9-4.1-60.2-11.1c-19-7.6-40.2-11.9-62.2-11.9c-22,0-43.3,4.4-62,11.9C52,844.6,31.5,848.7,10,848.7v77.8c21.5,0,42-4.2,60.6-11.3c18.7-7.3,39.9-11.8,62-11.8c22,0,43.2,4.4,62.2,11.8c18.3,7.1,39,11.3,60.2,11.3c21.5,0,42.2-4.2,60.4-11.3c18.8-7.3,40.1-11.8,62.4-11.8c21.8,0,43.2,4.4,62,11.8c18.4,7.1,38.9,11.3,60.4,11.3c21.2,0,42-4.2,60.2-11.3c18.9-7.3,40.1-11.8,62.2-11.8c22.1,0,43.3,4.4,62.4,11.8c18.2,7.1,38.8,11.3,60.2,11.3c21.5,0,42-4.2,60.2-11.3c18.8-7.3,40.2-11.8,62.2-11.8c22.2,0,43.5,4.4,62.2,11.8c18.3,7.1,38.8,11.3,60.2,11.3v-77.8c-21.4,0-41.9-4.1-60.2-11.1C911.1,830,889.8,825.7,867.6,825.7"/></g>
</svg>