<?xml version="1.0" encoding="utf-8"?>
<!-- Svg Vector Icons : http://www.onlinewebfonts.com/icon -->
<!DOCTYPE svg PUBLIC "-//W3C//DTD SVG 1.1//EN" "http://www.w3.org/Graphics/SVG/1.1/DTD/svg11.dtd">
<svg version="1.1" xmlns="http://www.w3.org/2000/svg" xmlns:xlink="http://www.w3.org/1999/xlink" x="0px" y="0px" viewBox="0 0 1000 1000" enable-background="new 0 0 1000 1000" xml:space="preserve">
<metadata> Svg Vector Icons : http://www.onlinewebfonts.com/icon </metadata>
<g><path d="M500,990C229.4,990,10,770.6,10,500C10,229.4,229.4,10,500,10c270.6,0,490,219.4,490,490C990,770.6,770.6,990,500,990 M861,798.4c0.3-19.9,1.2-74.7,1.5-103.3l-156,1.8c-4.7,5-99.9,108.2-163.3,131.8l10.3,101.7c28.4,2.9,79.3,8.2,104.2,10.3C737.7,912.1,807.8,862.6,861,798.4 M185.8,847.3c69.8,63.2,158.6,105.5,256.8,117.7l79.1-31.9l-10.8-107.3c-74.8-27.1-137.7-73.1-168.1-94.7l-160,44C183.7,797.5,184.9,827.4,185.8,847.3 M80.7,291.1C49.3,354,31.2,424.8,31.2,500c0,30.9,3.8,60.8,9.6,90c2.1-40.2,11.3-131.2,50.2-222.5L80.7,291.1z M114.8,391.2c-41.4,98.9-47.3,195.1-48.1,215.9l6.9,0.8l106.7,134.7l146.8-40.4c11.1-84.9,34-155,43.1-180.5L235.8,353.6L114.8,391.2z M500,31.1c-90,0-173.8,25.8-245.2,69.8c13.8,9.4,45.6,28.2,68.9,41.7c41.3-13.5,88.5-21.2,142.7-21.2c32.9,0,63.1,3.1,92,7.5L652,56.8C604.3,40.5,553.3,31.1,500,31.1 M582.4,161.6c-34.1-7.1-70.4-11.8-110.7-11.8c-46.9,0-88.2,6.5-124.9,17.8l-85.7,166.7l137,171.3c35.8-6.9,108.3-18.1,189.9-14.1L687.8,289L582.4,161.6z M830.4,303.7H716l-96.1,195.1c33.3,28,63.8,118.1,78.2,166.4l174.2-2c42.4-68.3,64.7-142.9,70.2-162.9C931.3,464.8,899.3,380.7,830.4,303.7 M862.6,298C942.7,394.6,967,494.7,967,494.7h1.6c-1.3-111.1-41.2-212.8-106.8-292.5C861.8,232.6,862.4,282,862.6,298"/></g>
</svg>